<?xml version="1.0" standalone="no"?>
<!DOCTYPE svg PUBLIC "-//W3C//DTD SVG 20010904//EN"
 "http://www.w3.org/TR/2001/REC-SVG-20010904/DTD/svg10.dtd">
<svg version="1.0" xmlns="http://www.w3.org/2000/svg"
 width="189.000000pt" height="189.000000pt" viewBox="0 0 189.000000 189.000000"
 preserveAspectRatio="xMidYMid meet">

<g transform="translate(0.000000,189.000000) scale(0.100000,-0.100000)"
fill="#000000" stroke="none">
<path d="M1642 1295 l-42 -85 0 -145 0 -145 25 0 25 0 0 131 c0 129 0 130 40
224 22 52 40 96 40 99 0 4 -10 6 -23 6 -18 0 -30 -16 -65 -85z"/>
<path d="M155 1003 c3 -16 19 -143 35 -283 17 -140 37 -302 45 -360 8 -58 17
-130 20 -160 13 -114 10 -110 71 -110 63 0 59 -19 44 190 -5 74 -16 259 -25
410 -8 151 -18 290 -21 308 l-5 32 -84 0 -84 0 4 -27z"/>
<path d="M504 1008 c3 -13 6 -90 6 -172 l0 -149 39 55 c25 34 56 63 85 79 l46
24 0 92 0 93 -91 0 c-90 0 -91 0 -85 -22z"/>
<path d="M860 936 l0 -94 30 -12 c35 -14 119 -104 122 -129 3 -33 15 137 17
232 l1 97 -85 0 -85 0 0 -94z"/>
<path d="M1210 1007 c0 -34 -49 -815 -54 -869 l-5 -48 59 0 c46 0 60 3 60 14
0 8 6 66 14 128 8 62 18 142 22 178 7 60 8 62 15 30 21 -102 30 -167 36 -254
l6 -96 173 0 172 0 7 78 c3 42 10 102 15 132 5 30 12 93 15 140 3 47 8 118 11
158 l6 72 -215 0 c-118 0 -235 3 -261 6 l-46 7 0 58 c0 44 4 59 14 59 9 0 19
22 28 58 13 55 15 57 50 60 39 3 48 18 48 80 l0 32 -85 0 c-82 0 -85 -1 -85
-23z"/>
<path d="M524 375 c3 -55 6 -142 6 -192 l0 -93 75 0 75 0 0 124 0 124 -29 12
c-27 11 -81 59 -117 105 -14 18 -15 12 -10 -80z"/>
<path d="M1002 463 c-4 -23 -72 -91 -107 -107 l-35 -17 0 -124 0 -125 69 0 69
0 7 103 c5 86 3 307 -3 270z"/>
</g>
</svg>
